<svg xmlns="http://www.w3.org/2000/svg" xmlns:xlink="http://www.w3.org/1999/xlink" width="286" height="69.805" viewBox="0 0 286 69.805"><defs><style>.a{fill:url(#a);}.b{fill:url(#b);}.c{fill:#64ffda;}.d{fill:#009688;}.e{fill:url(#c);}.f{fill:#607d8b;}</style><linearGradient id="a" y1="0.5" x2="1" y2="0.5" gradientUnits="objectBoundingBox"><stop offset="0.001" stop-color="#009688"/><stop offset="1" stop-color="#00bfa5"/></linearGradient><linearGradient id="b" y1="0.5" x2="1" y2="0.5" gradientUnits="objectBoundingBox"><stop offset="0" stop-color="#1de9b6"/><stop offset="1" stop-color="#00bfa5"/></linearGradient><linearGradient id="c" y1="0.5" x2="1" y2="0.5" gradientUnits="objectBoundingBox"><stop offset="0" stop-color="#00bfa5"/><stop offset="0.999" stop-color="#009688"/></linearGradient></defs><g transform="translate(-1223 -464.077)"><g transform="translate(1223 464.077)"><path class="a" d="M1258.656,534.716l-27.945-9.922,1.519-37.766,26.426-11.34Z" transform="translate(-1227.167 -470.35)"/><path class="b" d="M1291.5,534.716l27.945-9.922-1.519-37.766-26.426-11.34Z" transform="translate(-1260.01 -470.35)"/><g transform="translate(16.657 8.881)"><path class="c" d="M1260.955,502.128l-1.721.506V483.4h1.721Z" transform="translate(-1259.234 -483.396)"/><path class="c" d="M1260.955,572.673h-1.721V553.435l1.721.506Z" transform="translate(-1259.234 -521.238)"/></g><g transform="translate(44.602 8.881)"><path class="c" d="M1321.743,502.634l-1.721-.506V483.4h1.721Z" transform="translate(-1320.022 -483.396)"/><path class="c" d="M1321.743,572.673h-1.721V553.941l1.721-.506Z" transform="translate(-1320.022 -521.238)"/></g><g transform="translate(0 51.941)"><path class="d" d="M1254.49,589.562l-31.49-12.5v5.366l31.49,12.5Z" transform="translate(-1223 -577.064)"/><path class="e" d="M1291.5,589.562l31.49-12.5v5.366l-31.49,12.5Z" transform="translate(-1260.01 -577.064)"/></g><g transform="translate(2.632)"><path class="d" d="M1257.584,469.443l-28.858,12.5v-5.366l28.858-12.5Z" transform="translate(-1228.726 -464.077)"/><path class="e" d="M1291.5,469.443l28.858,12.5v-5.366l-28.858-12.5Z" transform="translate(-1262.642 -464.077)"/></g></g><g transform="translate(1312.281 484.119)"><path class="f" d="M1418.73,507.674h.291q1.536.323,1.536,1.454v9.18h10.537v-9.051q.275-1.584,1.584-1.584h.227q1.535.291,1.535,1.584v21.026q0,1.18-1.6,1.519h-.162q-1.583-.291-1.584-1.648v-8.566h-10.537v8.631q0,1.309-1.584,1.584h-.113q-1.341,0-1.649-1.665V509.468Q1417.4,507.674,1418.73,507.674Z" transform="translate(-1417.211 -507.674)"/><path class="f" d="M1464.594,522.018q5.058,0,7.854,4.8a8.833,8.833,0,0,1,.969,4.089v.355q-.291,1.649-1.632,1.648h-12.1a4.9,4.9,0,0,0,2.634,2.764,6.763,6.763,0,0,0,2.392.485,7.208,7.208,0,0,0,3.1-.9h.517q1.519.29,1.519,1.584v.178q0,1.907-4.8,2.537h-.452a8.647,8.647,0,0,1-7.564-4.412,8.924,8.924,0,0,1-1.147-4.363q0-4.816,4.542-7.661A9.413,9.413,0,0,1,1464.594,522.018Zm-5.2,7.564h10.586a5.987,5.987,0,0,0-1.341-2.408,5.283,5.283,0,0,0-3.555-1.713h-.663a5.077,5.077,0,0,0-4.364,2.618A4.967,4.967,0,0,0,1459.39,529.582Z" transform="translate(-1438.105 -515.424)"/><path class="f" d="M1509.87,537.748a7.315,7.315,0,0,1-5.2,1.842h-.469q-4.461,0-7.434-4.461a9.643,9.643,0,0,1-1.083-4.347q0-4.881,4.784-7.741a9.337,9.337,0,0,1,3.976-.953q4.962,0,7.854,4.849a9.918,9.918,0,0,1,.889,4.089v7q0,1.293-1.584,1.568h-.113a1.749,1.749,0,0,1-1.632-1.293v-.178Zm-10.861-7.03v.178a5.33,5.33,0,0,0,5.188,5.366h.469a5.288,5.288,0,0,0,4.541-2.764,5.527,5.527,0,0,0,.647-2.473v-.242a5.311,5.311,0,0,0-3.152-4.881,5.479,5.479,0,0,0-2.263-.485h-.064q-3.346,0-5.042,3.491A6.427,6.427,0,0,0,1499.009,530.718Z" transform="translate(-1459.607 -515.462)"/><path class="f" d="M1541.742,507.885h.291q1.536.323,1.536,1.454v19.232h.792q1.18,0,1.519,1.6v.129q-.274,1.616-1.648,1.616h-2.359q-1.342,0-1.649-1.648V509.663Q1540.417,507.885,1541.742,507.885Z" transform="translate(-1483.673 -507.788)"/><path class="f" d="M1559.2,509.186h.275q1.5.323,1.5,1.438v4.849h1.923l.533-.064q1.245,0,1.633,1.616a1.812,1.812,0,0,1-1.422,1.729l-.969-.065h-1.7v8.227q0,1.939,1.1,2.311l1.277.113H1564q1.18,0,1.487,1.568v.145q-.275,1.567-1.616,1.568h-1.244q-3.135,0-4.655-3.394a6.409,6.409,0,0,1-.274-1.956v-8.582h-.679l-1.034.065a1.786,1.786,0,0,1-1.422-1.713q.275-1.567,1.067-1.568v-.113l1.115.113h.954v-4.525Q1557.9,509.186,1559.2,509.186Z" transform="translate(-1491.423 -508.491)"/><path class="f" d="M1582.067,507.779h.29q1.536.324,1.536,1.454v6.4a6.678,6.678,0,0,1,4.525-1.455,7.9,7.9,0,0,1,6.933,4.089,7.335,7.335,0,0,1,.986,3.474v8.534q0,1.309-1.616,1.584h-.081q-1.245,0-1.649-1.519V522.1a4.465,4.465,0,0,0-3.087-4.3,5.338,5.338,0,0,0-1.487-.21q-3.055,0-4.315,3.281a9.363,9.363,0,0,0-.21,2.392v7.014q0,1.309-1.616,1.584h-.081q-1.245,0-1.649-1.519V509.363Q1580.886,507.779,1582.067,507.779Z" transform="translate(-1505.46 -507.731)"/><path class="f" d="M1625.208,533.126q4.024-9.81,4.347-10.182a1.83,1.83,0,0,1,1.18-.469q1.552.29,1.552,1.552v.1q-.065.5-5.608,13.721a73.229,73.229,0,0,1-3.039,7.063,3.069,3.069,0,0,1-1.05.485q-1.632-.355-1.633-1.471v-.275q0-.307,2.505-6.351l-5.333-13.01v-.194q.307-1.551,1.616-1.551t2.085,2.554Q1624.448,531.267,1625.208,533.126Z" transform="translate(-1525.765 -515.671)"/><path class="f" d="M1670.193,509.607h.194q.744.145.744.566v10.069h12.315v-9.858q.129-.776.694-.776h.146q.727.145.727.7v21.026q0,.47-.808.631h.016q-.776-.145-.776-.76v-9.454h-12.315v9.519q0,.566-.776.7h-.032q-.6,0-.759-.857V510.561Q1669.66,509.607,1670.193,509.607Z" transform="translate(-1553.555 -508.718)"/><path class="f" d="M1718.8,524.2a7.92,7.92,0,0,1,7.823,7.822,7.827,7.827,0,0,1-7.645,7.822h-.485a7.9,7.9,0,0,1-5.85-2.974,8.268,8.268,0,0,1-1.665-4.849,7.792,7.792,0,0,1,3.377-6.4A7.953,7.953,0,0,1,1718.8,524.2Zm-6.222,7.644v.291a6,6,0,0,0,3.394,5.463,5.67,5.67,0,0,0,2.65.646h.356q3.652,0,5.592-3.782a6.557,6.557,0,0,0,.453-2.327v-.291a5.957,5.957,0,0,0-2.683-4.945,6.17,6.17,0,0,0-3.6-1.1q-3.992,0-5.835,4.154A6.38,6.38,0,0,0,1712.577,531.842Z" transform="translate(-1575.93 -516.601)"/><path class="f" d="M1753.75,524.619q.776.194.776.6v1.438a7.693,7.693,0,0,1,4.687-2.037q2.877,0,5.463,3.168a6.3,6.3,0,0,1,3.927-2.99l1.309-.178a6.117,6.117,0,0,1,6.157,6v8.857q0,.452-.76.6h.016q-.759-.13-.759-.728v-8.6q0-3.215-3.394-4.428l-.889-.13h-.63q-2.715,0-4.137,3.1a4.874,4.874,0,0,0-.194,1.212v8.76q-.146.808-.711.808h-.032q-.759-.13-.76-.663V532.1q0-3.216-.921-4.073a4.318,4.318,0,0,0-3.636-1.843h-.178q-3.1,0-4.363,3.313a8.73,8.73,0,0,0-.194,2.02v7.887q0,.534-.76.663h-.016q-.565,0-.727-.808V525.589Q1753.12,524.619,1753.75,524.619Z" transform="translate(-1598.647 -516.829)"/><path class="f" d="M1818.677,523.951a7.828,7.828,0,0,1,7.079,4.331,7.962,7.962,0,0,1,.857,3.669v.274q-.145.841-.744.84h-13.285a7.072,7.072,0,0,0,3.442,4.461,7.715,7.715,0,0,0,2.764.566,7.5,7.5,0,0,0,3.313-.905h.226q.712.146.711.7v.178q0,1.131-3.976,1.649h-.388a7.793,7.793,0,0,1-6.8-3.976,8.028,8.028,0,0,1-1.018-3.911,7.816,7.816,0,0,1,4.089-6.885A8.449,8.449,0,0,1,1818.677,523.951Zm-6.206,7.564h12.477a6.771,6.771,0,0,0-1.552-3.895,6.279,6.279,0,0,0-4.234-2h-.663a5.96,5.96,0,0,0-5.123,3.039A7.638,7.638,0,0,0,1812.471,531.515Z" transform="translate(-1629.894 -516.468)"/></g></g></svg>